 <svg
    width="22"
    height="18"
    viewBox="0 0 22 18"
    fill="none"
    xmlns="http://www.w3.org/2000/svg"
>
    <path
        fill-rule="evenodd"
        clip-rule="evenodd"
        d="M5.19406 10.2659H20.3596C21.0703 10.2659 21.6463 9.70627 21.6463 9.01587C21.6463 8.32557 21.0703 7.76586 20.3596 7.76586H5.19406L10.2765 2.82871C10.7789 2.34056 10.7789 1.5491 10.2765 1.06093C10.2137 0.999924 10.1459 0.946536 10.0746 0.90077C9.57513 0.58041 8.8964 0.633814 8.4567 1.06093L1.17767 8.13197C0.675145 8.62017 0.675145 9.41167 1.17767 9.89976L8.4567 16.9709C8.95923 17.459 9.77391 17.459 10.2765 16.9709C10.7789 16.4827 10.7789 15.6913 10.2765 15.2031L5.19406 10.2659Z"
        fill="#15097A"
    />
</svg>