<svg width="136" height="132" viewBox="0 0 136 132" fill="none" xmlns="http://www.w3.org/2000/svg">
<path fill-rule="evenodd" clip-rule="evenodd" d="M57.0513 46.3095L105.322 45.2789L10.372 127.772L9.33586 88.8297L57.0513 46.3095Z" fill="#FF006A"/>
<path d="M21.799 82.3002L24.8898 85.3867L20.9247 88.849L31.8019 99.7111L27.6681 103.321L16.7909 92.4587L12.868 95.8842L9.77725 92.7977L21.799 82.3002ZM44.5638 88.8269C43.1718 90.0424 41.5885 90.8563 39.8138 91.2686C38.026 91.6677 36.2461 91.6273 34.474 91.1473C32.7028 90.6419 31.1304 89.7033 29.7567 88.3315C28.383 86.9597 27.4921 85.4384 27.0839 83.7674C26.6766 82.071 26.7526 80.4099 27.312 78.7841C27.8715 77.1583 28.8472 75.7376 30.2392 74.5221C31.6452 73.2944 33.2285 72.4804 34.9891 72.0804C36.7637 71.6681 38.5366 71.7147 40.3078 72.2201C42.0658 72.7124 43.6317 73.6444 45.0053 75.0162C46.379 76.3879 47.2766 77.9159 47.698 79.6C48.1062 81.271 48.0371 82.9259 47.4909 84.5649C46.9315 86.1907 45.9558 87.6114 44.5638 88.8269ZM40.9578 85.226C42.0124 84.3051 42.5184 83.2576 42.4757 82.0833C42.4472 80.8968 41.8914 79.7627 40.8083 78.6811C39.6988 77.5731 38.5177 76.9727 37.265 76.8798C36.0132 76.7614 34.86 77.1627 33.8055 78.0835C32.7369 79.0166 32.2239 80.0703 32.2665 81.2446C32.2959 82.4056 32.8653 83.5402 33.9749 84.6481C35.0712 85.7429 36.2452 86.3495 37.497 86.4679C38.7356 86.5731 39.8892 86.1591 40.9578 85.226ZM56.3328 60.86C57.1781 61.7042 57.7399 62.66 58.0181 63.7274C58.2972 64.7694 58.2263 65.8697 57.8053 67.0285C57.3852 68.1618 56.5705 69.2563 55.3613 70.3122L53.3155 72.0987L58.031 76.8076L53.8972 80.4173L39.9292 66.4686L46.1088 61.0725C47.304 60.0289 48.5144 59.3427 49.7403 59.0141C50.9802 58.6731 52.161 58.668 53.2829 58.9987C54.4048 59.3295 55.4214 59.9499 56.3328 60.86ZM51.8698 67.5757C53.0369 66.5566 53.1184 65.5458 52.1146 64.5434C51.0976 63.5277 50.0055 63.5294 48.8385 64.5485L47.1934 65.985L50.2247 69.0122L51.8698 67.5757ZM55.6665 58.5862L52.0209 54.9457L58.5169 49.2734L73 63.7364L68.6764 67.5118L57.8388 56.6893L55.6665 58.5862Z" fill="white"/>
</svg>
