<svg width="147" height="139" viewBox="0 0 147 139" fill="none" xmlns="http://www.w3.org/2000/svg">
<path fill-rule="evenodd" clip-rule="evenodd" d="M43.73 74.2988L66.2102 74.2769L11.2352 129.326L11.2485 106.878L43.73 74.2988Z" fill="#FF006A"/>
<path d="M29.6445 103.721L27.4291 105.94L20.0172 104.443L24.4791 108.896L22.2637 111.116L14.2799 103.147L16.4953 100.928L23.9638 102.482L19.4453 97.9719L21.6607 95.7523L29.6445 103.721ZM33.7146 93.1425C33.8882 93.3158 34.0506 93.5005 34.2016 93.6964L30.0083 97.8978C30.3782 98.2218 30.7328 98.3874 31.0722 98.3946C31.4116 98.3868 31.7132 98.2507 31.9769 97.9865C32.3462 97.6165 32.4438 97.1865 32.2699 96.6964L34.6321 94.3296C34.9721 94.8648 35.1725 95.4491 35.2335 96.0826C35.2944 96.7011 35.2082 97.3234 34.975 97.9497C34.7418 98.5759 34.3652 99.1495 33.8453 99.6704C33.2199 100.297 32.5302 100.724 31.7761 100.951C31.0296 101.17 30.2716 101.175 29.5021 100.964C28.7401 100.746 28.0269 100.306 27.3625 99.6427C26.6982 98.9796 26.26 98.271 26.0481 97.517C25.8286 96.7554 25.8279 96.0012 26.0459 95.2542C26.2715 94.4998 26.7007 93.8055 27.3337 93.1713C27.9591 92.5447 28.6413 92.1179 29.3802 91.8909C30.1192 91.6639 30.8659 91.6556 31.6203 91.8661C32.3672 92.069 33.0653 92.4945 33.7146 93.1425ZM30.8991 94.8536C30.6273 94.5823 30.3255 94.4619 29.9937 94.4924C29.6543 94.5154 29.349 94.6628 29.0777 94.9345C28.8064 95.2063 28.6596 95.5044 28.6373 95.8288C28.6075 96.1456 28.7096 96.4736 28.9437 96.8128L30.8991 94.8536ZM40.8883 79.7491L45.6251 87.7095L43.1385 90.2009L38.4065 87.2412L41.3413 92.0015L38.866 94.4815L30.9079 89.7487L33.112 87.5404L38.0368 91.0317L34.7622 85.8871L37.1358 83.5089L42.3319 86.7509L38.8086 81.8329L40.8883 79.7491Z" fill="white"/>
</svg>
